STARTFONT 2.1
COMMENT Plato terminal font
COMMENT   
FONT -AK Design-Plato-Medium-R-Normal-Sans-8-80-100-100-M-80-PLATO-1
SIZE 8 100 100
FONTBOUNDINGBOX 8 8 -1 -1
STARTPROPERTIES 24
FONTNAME_REGISTRY ""
FOUNDRY "AK Design"
FAMILY_NAME "Plato"
WEIGHT_NAME "Medium"
SLANT "R"
SETWIDTH_NAME "Normal"
ADD_STYLE_NAME "Sans"
PIXEL_SIZE 8
POINT_SIZE 80
RESOLUTION_X 100
RESOLUTION_Y 100
SPACING "M"
AVERAGE_WIDTH 80
CHARSET_REGISTRY "PLATO"
CHARSET_ENCODING "1"
COPYRIGHT ""
FACE_NAME "Plato"
X_HEIGHT 7
CAP_HEIGHT 9
WEIGHT 10
RESOLUTION 100
QUAD_WIDTH 8
FONT_ASCENT 16
FONT_DESCENT 0
ENDPROPERTIES
CHARS 128
STARTCHAR char0
ENCODING 0
SWIDTH 720 0
DWIDTH 8 0
BBX 8 16 0 0
BITMAP
00
00
00
00
00
00
30
30
00
00
30
30
00
00
00
00
ENDCHAR
STARTCHAR char1
ENCODING 1
SWIDTH 720 0
DWIDTH 8 0
BBX 8 16 0 0
BITMAP
00
00
00
00
00
00
78
04
7c
84
84
7a
00
00
00
00
ENDCHAR
STARTCHAR char2
ENCODING 2
SWIDTH 720 0
DWIDTH 8 0
BBX 8 16 0 0
BITMAP
00
00
00
80
80
80
b8
c4
82
82
c4
b8
00
00
00
00
ENDCHAR
STARTCHAR char3
ENCODING 3
SWIDTH 720 0
DWIDTH 8 0
BBX 8 16 0 0
BITMAP
00
00
00
00
00
00
3c
42
80
80
42
3c
00
00
00
00
ENDCHAR
STARTCHAR char4
ENCODING 4
SWIDTH 720 0
DWIDTH 8 0
BBX 8 16 0 0
BITMAP
00
00
00
02
02
02
3a
46
82
82
46
3a
00
00
00
00
ENDCHAR
STARTCHAR char5
ENCODING 5
SWIDTH 720 0
DWIDTH 8 0
BBX 8 16 0 0
BITMAP
00
00
00
00
00
00
3c
42
fe
80
40
3e
00
00
00
00
ENDCHAR
STARTCHAR char6
ENCODING 6
SWIDTH 720 0
DWIDTH 8 0
BBX 8 16 0 0
BITMAP
00
00
00
0c
12
10
38
10
10
10
10
38
00
00
00
00
ENDCHAR
STARTCHAR char7
ENCODING 7
SWIDTH 720 0
DWIDTH 8 0
BBX 8 16 0 0
BITMAP
00
00
00
00
00
00
7a
84
84
78
80
7c
82
7c
00
00
ENDCHAR
STARTCHAR char8
ENCODING 8
SWIDTH 720 0
DWIDTH 8 0
BBX 8 16 0 0
BITMAP
00
00
00
c0
40
40
5c
62
42
42
42
42
00
00
00
00
ENDCHAR
STARTCHAR char9
ENCODING 9
SWIDTH 720 0
DWIDTH 8 0
BBX 8 16 0 0
BITMAP
00
00
00
10
00
00
30
10
10
10
10
38
00
00
00
00
ENDCHAR
STARTCHAR char10
ENCODING 10
SWIDTH 720 0
DWIDTH 8 0
BBX 8 16 0 0
BITMAP
00
00
00
10
00
00
30
10
10
10
10
10
10
10
60
00
ENDCHAR
STARTCHAR char11
ENCODING 11
SWIDTH 720 0
DWIDTH 8 0
BBX 8 16 0 0
BITMAP
00
00
00
c0
40
40
4c
50
60
50
48
c6
00
00
00
00
ENDCHAR
STARTCHAR char12
ENCODING 12
SWIDTH 720 0
DWIDTH 8 0
BBX 8 16 0 0
BITMAP
00
00
00
30
10
10
10
10
10
10
10
38
00
00
00
00
ENDCHAR
STARTCHAR char13
ENCODING 13
SWIDTH 720 0
DWIDTH 8 0
BBX 8 16 0 0
BITMAP
00
00
00
00
00
00
ec
92
92
92
92
92
00
00
00
00
ENDCHAR
STARTCHAR char14
ENCODING 14
SWIDTH 720 0
DWIDTH 8 0
BBX 8 16 0 0
BITMAP
00
00
00
00
00
00
dc
62
42
42
42
42
00
00
00
00
ENDCHAR
STARTCHAR char15
ENCODING 15
SWIDTH 720 0
DWIDTH 8 0
BBX 8 16 0 0
BITMAP
00
00
00
00
00
00
38
44
82
82
44
38
00
00
00
00
ENDCHAR
STARTCHAR char16
ENCODING 16
SWIDTH 720 0
DWIDTH 8 0
BBX 8 16 0 0
BITMAP
00
00
00
00
00
00
b8
c4
82
82
c4
b8
80
80
80
00
ENDCHAR
STARTCHAR char17
ENCODING 17
SWIDTH 720 0
DWIDTH 8 0
BBX 8 16 0 0
BITMAP
00
00
00
00
00
00
3a
46
82
82
46
3a
02
02
02
00
ENDCHAR
STARTCHAR char18
ENCODING 18
SWIDTH 720 0
DWIDTH 8 0
BBX 8 16 0 0
BITMAP
00
00
00
00
00
00
dc
62
40
40
40
40
00
00
00
00
ENDCHAR
STARTCHAR char19
ENCODING 19
SWIDTH 720 0
DWIDTH 8 0
BBX 8 16 0 0
BITMAP
00
00
00
00
00
00
7c
80
7c
02
82
7c
00
00
00
00
ENDCHAR
STARTCHAR char20
ENCODING 20
SWIDTH 720 0
DWIDTH 8 0
BBX 8 16 0 0
BITMAP
00
00
00
20
20
20
fc
20
20
20
20
1c
00
00
00
00
ENDCHAR
STARTCHAR char21
ENCODING 21
SWIDTH 720 0
DWIDTH 8 0
BBX 8 16 0 0
BITMAP
00
00
00
00
00
00
84
84
84
84
84
7a
00
00
00
00
ENDCHAR
STARTCHAR char22
ENCODING 22
SWIDTH 720 0
DWIDTH 8 0
BBX 8 16 0 0
BITMAP
00
00
00
00
00
00
c6
44
28
28
10
10
00
00
00
00
ENDCHAR
STARTCHAR char23
ENCODING 23
SWIDTH 720 0
DWIDTH 8 0
BBX 8 16 0 0
BITMAP
00
00
00
00
00
00
82
92
92
92
aa
44
00
00
00
00
ENDCHAR
STARTCHAR char24
ENCODING 24
SWIDTH 720 0
DWIDTH 8 0
BBX 8 16 0 0
BITMAP
00
00
00
00
00
00
c2
24
18
18
24
42
00
00
00
00
ENDCHAR
STARTCHAR char25
ENCODING 25
SWIDTH 720 0
DWIDTH 8 0
BBX 8 16 0 0
BITMAP
00
00
00
00
00
00
82
82
82
44
28
10
20
40
80
00
ENDCHAR
STARTCHAR char26
ENCODING 26
SWIDTH 720 0
DWIDTH 8 0
BBX 8 16 0 0
BITMAP
00
00
00
00
00
00
fc
88
10
20
44
fc
00
00
00
00
ENDCHAR
STARTCHAR char27
ENCODING 27
SWIDTH 720 0
DWIDTH 8 0
BBX 8 16 0 0
BITMAP
00
00
00
00
3a
44
4c
54
54
64
44
b8
00
00
00
00
ENDCHAR
STARTCHAR char28
ENCODING 28
SWIDTH 720 0
DWIDTH 8 0
BBX 8 16 0 0
BITMAP
00
00
00
00
10
30
10
10
10
10
10
38
00
00
00
00
ENDCHAR
STARTCHAR char29
ENCODING 29
SWIDTH 720 0
DWIDTH 8 0
BBX 8 16 0 0
BITMAP
00
00
00
00
38
44
04
08
10
20
40
7c
00
00
00
00
ENDCHAR
STARTCHAR char30
ENCODING 30
SWIDTH 720 0
DWIDTH 8 0
BBX 8 16 0 0
BITMAP
00
00
00
00
38
44
04
18
04
04
44
38
00
00
00
00
ENDCHAR
STARTCHAR char31
ENCODING 31
SWIDTH 720 0
DWIDTH 8 0
BBX 8 16 0 0
BITMAP
00
00
00
00
04
0c
14
24
7e
04
04
04
00
00
00
00
ENDCHAR
STARTCHAR char32
ENCODING 32
SWIDTH 720 0
DWIDTH 8 0
BBX 8 16 0 0
BITMAP
00
00
00
00
7c
40
40
78
04
04
08
70
00
00
00
00
ENDCHAR
STARTCHAR char33
ENCODING 33
SWIDTH 720 0
DWIDTH 8 0
BBX 8 16 0 0
BITMAP
00
00
00
00
18
20
40
78
44
44
44
38
00
00
00
00
ENDCHAR
STARTCHAR char34
ENCODING 34
SWIDTH 720 0
DWIDTH 8 0
BBX 8 16 0 0
BITMAP
00
00
00
00
7c
04
08
08
10
10
20
20
00
00
00
00
ENDCHAR
STARTCHAR char35
ENCODING 35
SWIDTH 720 0
DWIDTH 8 0
BBX 8 16 0 0
BITMAP
00
00
00
00
38
44
44
38
44
44
44
38
00
00
00
00
ENDCHAR
STARTCHAR char36
ENCODING 36
SWIDTH 720 0
DWIDTH 8 0
BBX 8 16 0 0
BITMAP
00
00
00
00
38
44
44
44
3c
04
08
30
00
00
00
00
ENDCHAR
STARTCHAR char37
ENCODING 37
SWIDTH 720 0
DWIDTH 8 0
BBX 8 16 0 0
BITMAP
00
00
00
00
00
00
10
10
7c
10
10
00
00
00
00
00
ENDCHAR
STARTCHAR char38
ENCODING 38
SWIDTH 720 0
DWIDTH 8 0
BBX 8 16 0 0
BITMAP
00
00
00
00
00
00
00
00
7c
00
00
00
00
00
00
00
ENDCHAR
STARTCHAR char39
ENCODING 39
SWIDTH 720 0
DWIDTH 8 0
BBX 8 16 0 0
BITMAP
00
00
00
00
00
10
54
28
28
54
10
00
00
00
00
00
ENDCHAR
STARTCHAR char40
ENCODING 40
SWIDTH 720 0
DWIDTH 8 0
BBX 8 16 0 0
BITMAP
00
00
00
00
00
02
04
08
10
20
40
80
00
00
00
00
ENDCHAR
STARTCHAR char41
ENCODING 41
SWIDTH 720 0
DWIDTH 8 0
BBX 8 16 0 0
BITMAP
00
00
00
02
04
08
08
08
08
08
08
04
02
00
00
00
ENDCHAR
STARTCHAR char42
ENCODING 42
SWIDTH 720 0
DWIDTH 8 0
BBX 8 16 0 0
BITMAP
00
00
00
80
40
20
20
20
20
20
20
40
80
00
00
00
ENDCHAR
STARTCHAR char43
ENCODING 43
SWIDTH 720 0
DWIDTH 8 0
BBX 8 16 0 0
BITMAP
00
00
00
10
7c
92
90
7c
12
92
7c
10
00
00
00
00
ENDCHAR
STARTCHAR char44
ENCODING 44
SWIDTH 720 0
DWIDTH 8 0
BBX 8 16 0 0
BITMAP
00
00
00
00
00
00
00
7c
00
7c
00
00
00
00
00
00
ENDCHAR
STARTCHAR char45
ENCODING 45
SWIDTH 720 0
DWIDTH 8 0
BBX 8 16 0 0
BITMAP
00
00
00
00
00
00
00
00
00
00
00
00
00
00
00
00
ENDCHAR
STARTCHAR char46
ENCODING 46
SWIDTH 720 0
DWIDTH 8 0
BBX 8 16 0 0
BITMAP
00
00
00
00
00
00
00
00
00
00
30
30
10
20
00
00
ENDCHAR
STARTCHAR char47
ENCODING 47
SWIDTH 720 0
DWIDTH 8 0
BBX 8 16 0 0
BITMAP
00
00
00
00
00
00
00
00
00
00
30
30
00
00
00
00
ENDCHAR
STARTCHAR char48
ENCODING 48
SWIDTH 720 0
DWIDTH 8 0
BBX 8 16 0 0
BITMAP
00
00
00
00
00
00
10
00
7c
00
10
00
00
00
00
00
ENDCHAR
STARTCHAR char49
ENCODING 49
SWIDTH 720 0
DWIDTH 8 0
BBX 8 16 0 0
BITMAP
00
00
00
0e
08
08
08
08
08
08
08
08
0e
00
00
00
ENDCHAR
STARTCHAR char50
ENCODING 50
SWIDTH 720 0
DWIDTH 8 0
BBX 8 16 0 0
BITMAP
00
00
00
e0
20
20
20
20
20
20
20
20
e0
00
00
00
ENDCHAR
STARTCHAR char51
ENCODING 51
SWIDTH 720 0
DWIDTH 8 0
BBX 8 16 0 0
BITMAP
00
00
00
40
a2
a4
48
10
24
4a
8a
04
00
00
00
00
ENDCHAR
STARTCHAR char52
ENCODING 52
SWIDTH 720 0
DWIDTH 8 0
BBX 8 16 0 0
BITMAP
00
00
00
00
00
00
24
18
18
24
00
00
00
00
00
00
ENDCHAR
STARTCHAR char53
ENCODING 53
SWIDTH 720 0
DWIDTH 8 0
BBX 8 16 0 0
BITMAP
00
00
00
00
00
10
30
5e
80
5e
30
10
00
00
00
00
ENDCHAR
STARTCHAR char54
ENCODING 54
SWIDTH 720 0
DWIDTH 8 0
BBX 8 16 0 0
BITMAP
00
00
00
10
10
10
00
00
00
00
00
00
00
00
00
00
ENDCHAR
STARTCHAR char55
ENCODING 55
SWIDTH 720 0
DWIDTH 8 0
BBX 8 16 0 0
BITMAP
00
00
00
28
28
28
00
00
00
00
00
00
00
00
00
00
ENDCHAR
STARTCHAR char56
ENCODING 56
SWIDTH 720 0
DWIDTH 8 0
BBX 8 16 0 0
BITMAP
00
00
00
10
10
10
10
10
10
00
00
10
00
00
00
00
ENDCHAR
STARTCHAR char57
ENCODING 57
SWIDTH 720 0
DWIDTH 8 0
BBX 8 16 0 0
BITMAP
00
00
00
00
00
00
30
30
00
00
30
30
10
20
00
00
ENDCHAR
STARTCHAR char58
ENCODING 58
SWIDTH 720 0
DWIDTH 8 0
BBX 8 16 0 0
BITMAP
00
00
00
00
00
08
10
20
40
20
10
08
00
00
00
00
ENDCHAR
STARTCHAR char59
ENCODING 59
SWIDTH 720 0
DWIDTH 8 0
BBX 8 16 0 0
BITMAP
00
00
00
00
00
20
10
08
04
08
10
20
00
00
00
00
ENDCHAR
STARTCHAR char60
ENCODING 60
SWIDTH 720 0
DWIDTH 8 0
BBX 8 16 0 0
BITMAP
00
00
00
00
00
00
00
00
00
00
00
00
00
ff
00
00
ENDCHAR
STARTCHAR char61
ENCODING 61
SWIDTH 720 0
DWIDTH 8 0
BBX 8 16 0 0
BITMAP
00
00
00
38
44
44
04
08
10
10
00
10
00
00
00
00
ENDCHAR
STARTCHAR char62
ENCODING 62
SWIDTH 720 0
DWIDTH 8 0
BBX 8 16 0 0
BITMAP
00
00
00
c0
a0
90
48
24
12
24
48
90
a0
c0
00
00
ENDCHAR
STARTCHAR char63
ENCODING 63
SWIDTH 720 0
DWIDTH 8 0
BBX 8 16 0 0
BITMAP
00
00
00
00
00
00
00
00
00
00
00
00
10
08
18
00
ENDCHAR
STARTCHAR char64
ENCODING 64
SWIDTH 720 0
DWIDTH 8 0
BBX 8 16 0 0
BITMAP
00
00
00
28
28
fe
28
fe
28
28
00
00
00
00
00
00
ENDCHAR
STARTCHAR char65
ENCODING 65
SWIDTH 720 0
DWIDTH 8 0
BBX 8 16 0 0
BITMAP
00
00
00
38
44
82
82
fe
82
82
82
82
00
00
00
00
ENDCHAR
STARTCHAR char66
ENCODING 66
SWIDTH 720 0
DWIDTH 8 0
BBX 8 16 0 0
BITMAP
00
00
00
f8
84
84
fc
82
82
82
82
fc
00
00
00
00
ENDCHAR
STARTCHAR char67
ENCODING 67
SWIDTH 720 0
DWIDTH 8 0
BBX 8 16 0 0
BITMAP
00
00
00
3c
42
80
80
80
80
80
42
3c
00
00
00
00
ENDCHAR
STARTCHAR char68
ENCODING 68
SWIDTH 720 0
DWIDTH 8 0
BBX 8 16 0 0
BITMAP
00
00
00
f8
84
82
82
82
82
82
84
f8
00
00
00
00
ENDCHAR
STARTCHAR char69
ENCODING 69
SWIDTH 720 0
DWIDTH 8 0
BBX 8 16 0 0
BITMAP
00
00
00
fe
80
80
80
f0
80
80
80
fe
00
00
00
00
ENDCHAR
STARTCHAR char70
ENCODING 70
SWIDTH 720 0
DWIDTH 8 0
BBX 8 16 0 0
BITMAP
00
00
00
fe
80
80
80
f0
80
80
80
80
00
00
00
00
ENDCHAR
STARTCHAR char71
ENCODING 71
SWIDTH 720 0
DWIDTH 8 0
BBX 8 16 0 0
BITMAP
00
00
00
3c
42
80
80
80
8e
82
42
3c
00
00
00
00
ENDCHAR
STARTCHAR char72
ENCODING 72
SWIDTH 720 0
DWIDTH 8 0
BBX 8 16 0 0
BITMAP
00
00
00
82
82
82
82
fe
82
82
82
82
00
00
00
00
ENDCHAR
STARTCHAR char73
ENCODING 73
SWIDTH 720 0
DWIDTH 8 0
BBX 8 16 0 0
BITMAP
00
00
00
7c
10
10
10
10
10
10
10
7c
00
00
00
00
ENDCHAR
STARTCHAR char74
ENCODING 74
SWIDTH 720 0
DWIDTH 8 0
BBX 8 16 0 0
BITMAP
00
00
00
3e
08
08
08
08
08
08
88
70
00
00
00
00
ENDCHAR
STARTCHAR char75
ENCODING 75
SWIDTH 720 0
DWIDTH 8 0
BBX 8 16 0 0
BITMAP
00
00
00
82
84
88
90
a0
d0
88
84
82
00
00
00
00
ENDCHAR
STARTCHAR char76
ENCODING 76
SWIDTH 720 0
DWIDTH 8 0
BBX 8 16 0 0
BITMAP
00
00
00
80
80
80
80
80
80
80
80
fe
00
00
00
00
ENDCHAR
STARTCHAR char77
ENCODING 77
SWIDTH 720 0
DWIDTH 8 0
BBX 8 16 0 0
BITMAP
00
00
00
82
c6
aa
92
82
82
82
82
82
00
00
00
00
ENDCHAR
STARTCHAR char78
ENCODING 78
SWIDTH 720 0
DWIDTH 8 0
BBX 8 16 0 0
BITMAP
00
00
00
82
c2
a2
a2
92
8a
8a
86
82
00
00
00
00
ENDCHAR
STARTCHAR char79
ENCODING 79
SWIDTH 720 0
DWIDTH 8 0
BBX 8 16 0 0
BITMAP
00
00
00
38
44
82
82
82
82
82
44
38
00
00
00
00
ENDCHAR
STARTCHAR char80
ENCODING 80
SWIDTH 720 0
DWIDTH 8 0
BBX 8 16 0 0
BITMAP
00
00
00
fc
82
82
82
fc
80
80
80
80
00
00
00
00
ENDCHAR
STARTCHAR char81
ENCODING 81
SWIDTH 720 0
DWIDTH 8 0
BBX 8 16 0 0
BITMAP
00
00
00
38
44
82
82
82
82
82
44
38
10
0c
00
00
ENDCHAR
STARTCHAR char82
ENCODING 82
SWIDTH 720 0
DWIDTH 8 0
BBX 8 16 0 0
BITMAP
00
00
00
fc
82
82
82
fc
90
88
84
82
00
00
00
00
ENDCHAR
STARTCHAR char83
ENCODING 83
SWIDTH 720 0
DWIDTH 8 0
BBX 8 16 0 0
BITMAP
00
00
00
7c
82
80
80
7c
02
02
82
7c
00
00
00
00
ENDCHAR
STARTCHAR char84
ENCODING 84
SWIDTH 720 0
DWIDTH 8 0
BBX 8 16 0 0
BITMAP
00
00
00
fe
10
10
10
10
10
10
10
10
00
00
00
00
ENDCHAR
STARTCHAR char85
ENCODING 85
SWIDTH 720 0
DWIDTH 8 0
BBX 8 16 0 0
BITMAP
00
00
00
82
82
82
82
82
82
82
82
7c
00
00
00
00
ENDCHAR
STARTCHAR char86
ENCODING 86
SWIDTH 720 0
DWIDTH 8 0
BBX 8 16 0 0
BITMAP
00
00
00
82
82
44
44
44
28
28
10
10
00
00
00
00
ENDCHAR
STARTCHAR char87
ENCODING 87
SWIDTH 720 0
DWIDTH 8 0
BBX 8 16 0 0
BITMAP
00
00
00
82
82
82
92
92
92
92
aa
44
00
00
00
00
ENDCHAR
STARTCHAR char88
ENCODING 88
SWIDTH 720 0
DWIDTH 8 0
BBX 8 16 0 0
BITMAP
00
00
00
82
82
44
28
10
28
44
82
82
00
00
00
00
ENDCHAR
STARTCHAR char89
ENCODING 89
SWIDTH 720 0
DWIDTH 8 0
BBX 8 16 0 0
BITMAP
00
00
00
82
82
44
28
10
10
10
10
10
00
00
00
00
ENDCHAR
STARTCHAR char90
ENCODING 90
SWIDTH 720 0
DWIDTH 8 0
BBX 8 16 0 0
BITMAP
00
00
00
fe
82
04
08
10
20
40
82
fe
00
00
00
00
ENDCHAR
STARTCHAR char91
ENCODING 91
SWIDTH 720 0
DWIDTH 8 0
BBX 8 16 0 0
BITMAP
00
00
32
4c
00
00
00
00
00
00
00
00
00
00
00
00
ENDCHAR
STARTCHAR char92
ENCODING 92
SWIDTH 720 0
DWIDTH 8 0
BBX 8 16 0 0
BITMAP
00
00
00
28
00
00
00
00
00
00
00
00
00
00
00
00
ENDCHAR
STARTCHAR char93
ENCODING 93
SWIDTH 720 0
DWIDTH 8 0
BBX 8 16 0 0
BITMAP
00
10
28
44
00
00
00
00
00
00
00
00
00
00
00
00
ENDCHAR
STARTCHAR char94
ENCODING 94
SWIDTH 720 0
DWIDTH 8 0
BBX 8 16 0 0
BITMAP
00
04
08
10
00
00
00
00
00
00
00
00
00
00
00
00
ENDCHAR
STARTCHAR char95
ENCODING 95
SWIDTH 720 0
DWIDTH 8 0
BBX 8 16 0 0
BITMAP
00
40
20
10
00
00
00
00
00
00
00
00
00
00
00
00
ENDCHAR
STARTCHAR char96
ENCODING 96
SWIDTH 720 0
DWIDTH 8 0
BBX 8 16 0 0
BITMAP
00
00
00
00
00
10
38
7c
10
10
10
10
00
00
00
00
ENDCHAR
STARTCHAR char97
ENCODING 97
SWIDTH 720 0
DWIDTH 8 0
BBX 8 16 0 0
BITMAP
00
00
00
00
00
00
08
0c
fe
0c
08
00
00
00
00
00
ENDCHAR
STARTCHAR char98
ENCODING 98
SWIDTH 720 0
DWIDTH 8 0
BBX 8 16 0 0
BITMAP
00
00
00
00
00
10
10
10
10
7c
38
10
00
00
00
00
ENDCHAR
STARTCHAR char99
ENCODING 99
SWIDTH 720 0
DWIDTH 8 0
BBX 8 16 0 0
BITMAP
00
00
00
00
00
00
20
60
fe
60
20
00
00
00
00
00
ENDCHAR
STARTCHAR char100
ENCODING 100
SWIDTH 720 0
DWIDTH 8 0
BBX 8 16 0 0
BITMAP
00
00
00
00
00
00
00
32
4c
00
00
00
00
00
00
00
ENDCHAR
STARTCHAR char101
ENCODING 101
SWIDTH 720 0
DWIDTH 8 0
BBX 8 16 0 0
BITMAP
00
00
00
fe
40
20
10
08
10
20
40
fe
00
00
00
00
ENDCHAR
STARTCHAR char102
ENCODING 102
SWIDTH 720 0
DWIDTH 8 0
BBX 8 16 0 0
BITMAP
00
00
00
00
10
10
28
28
44
44
82
fe
00
00
00
00
ENDCHAR
STARTCHAR char103
ENCODING 103
SWIDTH 720 0
DWIDTH 8 0
BBX 8 16 0 0
BITMAP
00
00
00
00
00
00
44
44
44
38
00
00
00
00
00
00
ENDCHAR
STARTCHAR char104
ENCODING 104
SWIDTH 720 0
DWIDTH 8 0
BBX 8 16 0 0
BITMAP
00
00
00
00
00
00
38
44
44
44
00
00
00
00
00
00
ENDCHAR
STARTCHAR char105
ENCODING 105
SWIDTH 720 0
DWIDTH 8 0
BBX 8 16 0 0
BITMAP
00
00
00
06
08
08
08
08
10
08
08
08
08
06
00
00
ENDCHAR
STARTCHAR char106
ENCODING 106
SWIDTH 720 0
DWIDTH 8 0
BBX 8 16 0 0
BITMAP
00
00
00
c0
20
20
20
20
10
20
20
20
20
c0
00
00
ENDCHAR
STARTCHAR char107
ENCODING 107
SWIDTH 720 0
DWIDTH 8 0
BBX 8 16 0 0
BITMAP
00
00
00
20
50
50
20
62
92
8c
8c
72
00
00
00
00
ENDCHAR
STARTCHAR char108
ENCODING 108
SWIDTH 720 0
DWIDTH 8 0
BBX 8 16 0 0
BITMAP
00
00
00
00
00
02
04
fe
10
fe
40
80
00
00
00
00
ENDCHAR
STARTCHAR char109
ENCODING 109
SWIDTH 720 0
DWIDTH 8 0
BBX 8 16 0 0
BITMAP
00
00
00
00
00
00
00
00
00
00
00
00
00
00
00
00
ENDCHAR
STARTCHAR char110
ENCODING 110
SWIDTH 720 0
DWIDTH 8 0
BBX 8 16 0 0
BITMAP
00
00
00
10
10
10
10
10
10
10
10
10
00
00
00
00
ENDCHAR
STARTCHAR char111
ENCODING 111
SWIDTH 720 0
DWIDTH 8 0
BBX 8 16 0 0
BITMAP
00
00
00
30
48
48
30
00
00
00
00
00
00
00
00
00
ENDCHAR
STARTCHAR char112
ENCODING 112
SWIDTH 720 0
DWIDTH 8 0
BBX 8 16 0 0
BITMAP
00
00
00
00
00
00
7c
00
7c
00
7c
00
00
00
00
00
ENDCHAR
STARTCHAR char113
ENCODING 113
SWIDTH 720 0
DWIDTH 8 0
BBX 8 16 0 0
BITMAP
00
00
00
00
00
00
62
92
94
88
98
66
00
00
00
00
ENDCHAR
STARTCHAR char114
ENCODING 114
SWIDTH 720 0
DWIDTH 8 0
BBX 8 16 0 0
BITMAP
00
00
00
00
18
24
44
78
44
42
42
7c
40
40
80
00
ENDCHAR
STARTCHAR char115
ENCODING 115
SWIDTH 720 0
DWIDTH 8 0
BBX 8 16 0 0
BITMAP
00
00
00
30
48
44
20
30
48
44
44
38
00
00
00
00
ENDCHAR
STARTCHAR char116
ENCODING 116
SWIDTH 720 0
DWIDTH 8 0
BBX 8 16 0 0
BITMAP
00
00
00
40
20
20
10
10
28
28
44
44
00
00
00
00
ENDCHAR
STARTCHAR char117
ENCODING 117
SWIDTH 720 0
DWIDTH 8 0
BBX 8 16 0 0
BITMAP
00
00
00
00
00
00
24
24
24
24
24
3a
20
20
c0
00
ENDCHAR
STARTCHAR char118
ENCODING 118
SWIDTH 720 0
DWIDTH 8 0
BBX 8 16 0 0
BITMAP
00
00
00
00
00
02
7c
a8
28
28
28
28
00
00
00
00
ENDCHAR
STARTCHAR char119
ENCODING 119
SWIDTH 720 0
DWIDTH 8 0
BBX 8 16 0 0
BITMAP
00
00
00
00
00
00
0c
12
22
22
64
58
40
80
80
00
ENDCHAR
STARTCHAR char120
ENCODING 120
SWIDTH 720 0
DWIDTH 8 0
BBX 8 16 0 0
BITMAP
00
00
00
00
00
00
3e
50
88
88
88
70
00
00
00
00
ENDCHAR
STARTCHAR char121
ENCODING 121
SWIDTH 720 0
DWIDTH 8 0
BBX 8 16 0 0
BITMAP
00
00
00
00
00
00
44
82
92
92
92
6c
00
00
00
00
ENDCHAR
STARTCHAR char122
ENCODING 122
SWIDTH 720 0
DWIDTH 8 0
BBX 8 16 0 0
BITMAP
00
00
00
00
0c
30
c0
30
0c
00
fc
00
00
00
00
00
ENDCHAR
STARTCHAR char123
ENCODING 123
SWIDTH 720 0
DWIDTH 8 0
BBX 8 16 0 0
BITMAP
00
00
00
00
60
18
06
18
60
00
7e
00
00
00
00
00
ENDCHAR
STARTCHAR char124
ENCODING 124
SWIDTH 720 0
DWIDTH 8 0
BBX 8 16 0 0
BITMAP
00
00
00
38
44
82
82
fe
82
82
44
38
00
00
00
00
ENDCHAR
STARTCHAR char125
ENCODING 125
SWIDTH 720 0
DWIDTH 8 0
BBX 8 16 0 0
BITMAP
00
00
00
00
00
38
44
9a
aa
aa
9c
40
38
00
00
00
ENDCHAR
STARTCHAR char126
ENCODING 126
SWIDTH 720 0
DWIDTH 8 0
BBX 8 16 0 0
BITMAP
00
00
00
00
00
80
40
20
10
08
04
02
00
00
00
00
ENDCHAR
STARTCHAR char127
ENCODING 127
SWIDTH 720 0
DWIDTH 8 0
BBX 8 16 0 0
BITMAP
00
00
00
00
00
00
6c
92
9e
90
92
6c
00
00
00
00
ENDCHAR
ENDFONT
